# Blender v2.79 (sub 0) OBJ File: ''
# www.blender.org
mtllib load1.mtl
o obj_51528157.001
v 0.500000 0.400000 -0.650000
v -0.500000 0.400000 -0.650000
v -0.500000 0.400000 -0.450000
v 0.500000 0.400000 -0.450000
v 0.500000 0.000000 -0.450000
v -0.500000 0.000000 -0.450000
v -0.500000 0.000000 -0.650000
v 0.500000 0.000000 -0.650000
v -0.500000 0.000000 0.650000
v -0.500000 0.400000 0.650000
v -0.500000 0.400000 0.450000
v -0.500000 0.000000 0.450000
v 0.500000 0.400000 0.450000
v 0.500000 0.000000 0.450000
v 0.500000 0.400000 0.650000
v 0.500000 0.000000 0.650000
v -0.500000 0.400000 0.650000
v -0.500000 0.600000 0.650000
v -0.500000 0.600000 -0.650000
v -0.500000 0.400000 -0.650000
v 0.500000 0.600000 -0.650000
v 0.500000 0.400000 -0.650000
v 0.500000 0.600000 0.650000
v 0.500000 0.400000 0.650000
vn 0.0000 1.0000 0.0000
vn 0.0000 0.0000 1.0000
vn -1.0000 0.0000 0.0000
vn 0.0000 -1.0000 0.0000
vn 1.0000 0.0000 0.0000
vn 0.0000 0.0000 -1.0000
usemtl None
s 1
f 1/1/1 2/1/1 3/1/1
f 1/1/1 3/1/1 4/1/1
f 5/1/2 4/1/2 3/1/2
f 5/1/2 3/1/2 6/1/2
f 6/1/3 3/1/3 2/1/3
f 6/1/3 2/1/3 7/1/3
f 7/1/4 8/1/4 5/1/4
f 7/1/4 5/1/4 6/1/4
f 8/1/5 1/1/5 4/1/5
f 8/1/5 4/1/5 5/1/5
f 7/1/6 2/1/6 1/1/6
f 7/1/6 1/1/6 8/1/6
f 9/1/3 10/1/3 11/1/3
f 9/1/3 11/1/3 12/1/3
f 12/1/6 11/1/6 13/1/6
f 12/1/6 13/1/6 14/1/6
f 14/1/5 13/1/5 15/1/5
f 14/1/5 15/1/5 16/1/5
f 16/1/2 15/1/2 10/1/2
f 16/1/2 10/1/2 9/1/2
f 12/1/4 14/1/4 16/1/4
f 12/1/4 16/1/4 9/1/4
f 13/1/1 11/1/1 10/1/1
f 13/1/1 10/1/1 15/1/1
f 17/1/3 18/1/3 19/1/3
f 17/1/3 19/1/3 20/1/3
f 20/1/6 19/1/6 21/1/6
f 20/1/6 21/1/6 22/1/6
f 22/1/5 21/1/5 23/1/5
f 22/1/5 23/1/5 24/1/5
f 24/1/2 23/1/2 18/1/2
f 24/1/2 18/1/2 17/1/2
f 20/1/4 22/1/4 24/1/4
f 20/1/4 24/1/4 17/1/4
f 21/1/1 19/1/1 18/1/1
f 21/1/1 18/1/1 23/1/1
